<svg width="100" height="100" viewBox="0 0 100 100" fill="none" xmlns="http://www.w3.org/2000/svg">
<g clip-path="url(#clip0_0_3)">
<circle cx="50" cy="32" r="16" stroke="black" stroke-width="6"/>
<circle cx="49.9992" cy="32" r="2" fill="black" stroke="black" stroke-width="6"/>
<rect x="37.1091" y="43.2943" width="3" height="61.38" rx="1.5" transform="rotate(30 37.1091 43.2943)" stroke="black" stroke-width="3"/>
<rect x="0.549038" y="-2.04904" width="3" height="61.38" rx="1.5" transform="matrix(0.866025 -0.5 -0.5 -0.866025 89.4808 96.451)" stroke="black" stroke-width="3"/>
<rect x="1.5" y="-1.5" width="3" height="13" rx="1.5" transform="matrix(1 0 0 -1 47 13.9406)" stroke="black" stroke-width="3"/>
<rect x="1.5" y="-1.5" width="3" height="18.1607" rx="1.5" transform="matrix(1 0 0 -1 47 77.102)" stroke="black" stroke-width="3"/>
<rect x="-1.5" y="-1.5" width="3" height="67" rx="1.5" transform="matrix(0 -1 -1 0 82 69.5216)" stroke="black" stroke-width="3"/>
</g>
<defs>
<clipPath id="clip0_0_3">
<rect width="100" height="100" fill="white"/>
</clipPath>
</defs>
</svg>
