<svg width="571" height="100" viewBox="0 0 571 100" fill="none" xmlns="http://www.w3.org/2000/svg">
<g clip-path="url(#clip0)">
<path d="M0 0H571V100H0V0Z" fill="#1C1B22"/>
<path d="M79.6568 75.1342L59.7652 38.4194C60.2222 37.228 60.4836 35.9399 60.4836 34.5888C60.4836 29.1697 56.4413 24.6873 51.2171 23.9697V17.4646C51.2171 16.6561 50.5609 16 49.7525 16C48.944 16 48.2878 16.6561 48.2878 17.4646V23.9689C43.0629 24.6866 39.0206 29.169 39.0206 34.588C39.0206 36.5638 39.5669 38.4099 40.5013 40.002L21.468 75.1349C20.4486 77.0162 21.1502 79.3771 23.0322 80.3972L25.6414 81.8113L23.4606 85.8368C23.0754 86.5486 23.339 87.4376 24.0508 87.8228C24.2727 87.9429 24.5114 87.9993 24.7472 87.9993C25.2672 87.9993 25.771 87.7217 26.0361 87.2325L28.9148 81.9197V81.919C28.9148 81.9182 28.9148 81.9182 28.9148 81.9182L48.769 45.2709C49.0934 45.3009 49.4207 45.3207 49.7525 45.3207C50.6027 45.3207 51.4258 45.2108 52.2196 45.0234L72.2056 81.9109C72.2071 81.9138 72.2078 81.9168 72.2093 81.9197C72.2107 81.9219 72.2122 81.9233 72.2137 81.9248L75.0894 87.2333C75.3545 87.7225 75.8583 88 76.379 88C76.6141 88 76.8535 87.9436 77.0754 87.8235C77.7865 87.4383 78.0508 86.5493 77.6656 85.8375L75.4841 81.812L78.0926 80.398C79.9739 79.3771 80.6761 77.0162 79.6568 75.1342ZM27.0371 79.2343L24.4279 77.8203C23.9659 77.5698 23.7938 76.9906 24.0442 76.5292L42.4961 42.4705C43.4598 43.3588 44.5824 44.0728 45.8215 44.5627L27.0371 79.2343ZM41.9505 34.5888C41.9505 30.2865 45.4509 26.7868 49.7532 26.7868C54.0555 26.7868 57.5551 30.2865 57.5551 34.5888C57.5551 35.7414 57.2974 36.8325 56.847 37.8182C56.8441 37.8219 56.8426 37.8263 56.8404 37.8307C55.6065 40.5175 52.897 42.3915 49.7525 42.3915C45.4509 42.3907 41.9505 38.891 41.9505 34.5888ZM76.6968 77.821L74.0883 79.2343L54.9738 43.9557C56.1499 43.2973 57.1927 42.4281 58.0436 41.3926L77.0805 76.5292C77.3317 76.9913 77.1589 77.5705 76.6968 77.821Z" fill="white"/>
<path d="M100.395 65V33.0078H109.25C111.725 33.0078 113.966 33.5938 115.973 34.7656C117.98 35.9375 119.555 37.5854 120.697 39.7095C121.84 41.8188 122.426 44.1846 122.455 46.8066V50.9595C122.455 53.6255 121.891 56.0278 120.763 58.1665C119.65 60.3052 118.09 61.9751 116.083 63.1763C114.076 64.3774 111.835 64.9854 109.359 65H100.395ZM101.581 34.1943V63.8135H109.25C111.491 63.8135 113.527 63.2715 115.358 62.1875C117.204 61.0889 118.646 59.5654 119.687 57.6172C120.727 55.6543 121.254 53.479 121.269 51.0913V46.9824C121.269 44.5947 120.756 42.4268 119.73 40.4785C118.72 38.5303 117.299 37.0068 115.468 35.9082C113.651 34.7949 111.637 34.2236 109.425 34.1943H101.581ZM146.511 51.311H135.415V65H134.228V33.0078H144.423C147.631 33.0078 150.18 33.8354 152.07 35.4907C153.974 37.146 154.926 39.3945 154.926 42.2363C154.926 44.4189 154.245 46.3306 152.883 47.9712C151.535 49.5972 149.814 50.6079 147.719 51.0034L156.267 64.6924V65H155.014L146.511 51.311ZM135.415 50.1245H145.5C147.961 50.1245 149.946 49.3774 151.455 47.8833C152.978 46.3892 153.74 44.5068 153.74 42.2363C153.74 39.7461 152.897 37.7832 151.213 36.3477C149.543 34.9121 147.25 34.1943 144.335 34.1943H135.415V50.1245ZM185.134 55.4419H169.468L165.908 65H164.612L176.587 33.0078H178.037L190.012 65H188.716L185.134 55.4419ZM169.907 54.2554H184.695L177.312 34.436L169.907 54.2554ZM217.254 49.2676H200.862V65H199.676V33.0078H219.495V34.1943H200.862V48.0371H217.254V49.2676ZM251.659 34.1943H240.013V65H238.827V34.1943H227.181V33.0078H251.659V34.1943ZM263.827 65H262.641V33.0078H263.827V65ZM301.044 65H299.858L279.204 35.0293V65H277.995V33.0078H279.204L299.858 62.9126V33.0078H301.044V65ZM336.899 61.5723C336.094 62.6855 334.68 63.6084 332.659 64.3408C330.637 65.0732 328.411 65.4395 325.979 65.4395C323.606 65.4395 321.489 64.8608 319.629 63.7036C317.769 62.5464 316.311 60.9131 315.256 58.8037C314.216 56.6943 313.682 54.3066 313.652 51.6406V46.1475C313.652 43.5254 314.158 41.1743 315.168 39.0942C316.179 37.0142 317.6 35.4102 319.431 34.2822C321.262 33.1396 323.32 32.5684 325.605 32.5684C328.784 32.5684 331.37 33.3813 333.362 35.0073C335.369 36.6333 336.533 38.8525 336.855 41.665H335.669C335.273 39.1162 334.211 37.1606 332.483 35.7983C330.754 34.436 328.462 33.7549 325.605 33.7549C322.383 33.7549 319.783 34.9048 317.805 37.2046C315.828 39.5044 314.839 42.5293 314.839 46.2793V51.377C314.839 53.8818 315.3 56.1157 316.223 58.0786C317.161 60.0415 318.472 61.5649 320.156 62.6489C321.855 63.7183 323.796 64.2529 325.979 64.2529C328.118 64.2529 330.103 63.938 331.934 63.3081C333.765 62.6782 335.024 61.9165 335.713 61.0229V51.7065H325.935V50.498H336.899V61.5723ZM386.769 55.2002C386.461 58.4961 385.326 61.0303 383.363 62.8027C381.4 64.5605 378.734 65.4395 375.365 65.4395C373.094 65.4395 371.08 64.8682 369.322 63.7256C367.579 62.5684 366.224 60.9351 365.257 58.8257C364.291 56.7017 363.8 54.2773 363.785 51.5527V46.6089C363.785 43.8843 364.261 41.4526 365.213 39.314C366.166 37.1606 367.521 35.498 369.278 34.3262C371.051 33.1543 373.08 32.5684 375.365 32.5684C378.705 32.5684 381.363 33.4473 383.341 35.2051C385.318 36.9629 386.461 39.4824 386.769 42.7637H385.582C385.245 39.8193 384.22 37.5854 382.506 36.062C380.792 34.5239 378.412 33.7549 375.365 33.7549C372.259 33.7549 369.747 34.9268 367.828 37.2705C365.924 39.6143 364.972 42.7563 364.972 46.6968V51.3989C364.972 53.9185 365.396 56.1523 366.246 58.1006C367.096 60.0342 368.312 61.543 369.894 62.627C371.49 63.7109 373.314 64.2529 375.365 64.2529C378.426 64.2529 380.814 63.4985 382.528 61.9897C384.256 60.481 385.274 58.2178 385.582 55.2002H386.769ZM415.548 55.4419H399.882L396.322 65H395.026L407.001 33.0078H408.451L420.426 65H419.13L415.548 55.4419ZM400.321 54.2554H415.109L407.726 34.436L400.321 54.2554ZM453.139 65H451.953L431.298 35.0293V65H430.09V33.0078H431.298L451.953 62.9126V33.0078H453.139V65ZM474.866 61.8799L475.503 63.8135L476.14 61.8799L486.885 33.0078H488.181L476.228 65H474.778L462.825 33.0078H464.121L474.866 61.8799ZM513.028 55.4419H497.361L493.802 65H492.505L504.48 33.0078H505.931L517.906 65H516.609L513.028 55.4419ZM497.801 54.2554H512.588L505.206 34.436L497.801 54.2554ZM546.729 57.3315C546.729 55.9692 546.407 54.8193 545.763 53.8818C545.133 52.9297 544.129 52.0947 542.752 51.377C541.39 50.6445 539.325 49.8975 536.556 49.1357C533.788 48.374 531.708 47.605 530.316 46.8286C528.939 46.0522 527.928 45.1514 527.284 44.126C526.639 43.1006 526.317 41.8555 526.317 40.3906C526.317 38.0615 527.298 36.1792 529.261 34.7437C531.224 33.2935 533.78 32.5684 536.93 32.5684C538.98 32.5684 540.819 32.9712 542.445 33.7769C544.085 34.5679 545.353 35.6885 546.246 37.1387C547.14 38.5742 547.586 40.2002 547.586 42.0166H546.4C546.4 39.6289 545.521 37.6587 543.763 36.106C542.005 34.5386 539.728 33.7549 536.93 33.7549C534.117 33.7549 531.839 34.3848 530.096 35.6445C528.368 36.8896 527.503 38.457 527.503 40.3467C527.503 42.2656 528.258 43.811 529.767 44.9829C531.275 46.1548 533.766 47.1948 537.237 48.103C540.709 48.9966 543.25 50.0366 544.862 51.2231C546.913 52.7319 547.938 54.7534 547.938 57.2876C547.938 58.8989 547.484 60.3271 546.576 61.5723C545.667 62.8027 544.378 63.7549 542.708 64.4287C541.039 65.1025 539.164 65.4395 537.083 65.4395C534.769 65.4395 532.689 65.0586 530.843 64.2969C528.998 63.5205 527.606 62.4219 526.668 61.001C525.746 59.5801 525.284 57.9028 525.284 55.9692H526.471C526.471 58.5913 527.452 60.6274 529.415 62.0776C531.378 63.5278 533.934 64.2529 537.083 64.2529C539.881 64.2529 542.188 63.6157 544.005 62.3413C545.821 61.0522 546.729 59.3823 546.729 57.3315Z" fill="white"/>
</g>
<defs>
<clipPath id="clip0">
<rect width="571" height="100" fill="white"/>
</clipPath>
</defs>
</svg>
