<svg width="100" height="100" viewBox="0 0 100 100" fill="none" xmlns="http://www.w3.org/2000/svg">
<rect width="100" height="100" rx="25" fill="white"/>
<g filter="url(#filter0_d)">
<path d="M78.6568 73.1342L58.7652 36.4194C59.2222 35.228 59.4836 33.9399 59.4836 32.5888C59.4836 27.1697 55.4413 22.6873 50.2171 21.9697V15.4646C50.2171 14.6561 49.5609 14 48.7525 14C47.944 14 47.2878 14.6561 47.2878 15.4646V21.9689C42.0629 22.6866 38.0206 27.169 38.0206 32.588C38.0206 34.5638 38.5669 36.4099 39.5013 38.002L20.468 73.1349C19.4486 75.0162 20.1502 77.3771 22.0322 78.3972L24.6414 79.8113L22.4606 83.8368C22.0754 84.5486 22.339 85.4376 23.0508 85.8228C23.2727 85.9429 23.5114 85.9993 23.7472 85.9993C24.2672 85.9993 24.771 85.7217 25.0361 85.2325L27.9148 79.9197V79.9182L47.769 43.2709C48.0934 43.3009 48.4207 43.3207 48.7525 43.3207C49.6027 43.3207 50.4258 43.2108 51.2196 43.0234L71.2056 79.9109C71.2071 79.9138 71.2078 79.9168 71.2093 79.9197C71.2107 79.9219 71.2122 79.9233 71.2137 79.9248L74.0894 85.2333C74.3545 85.7225 74.8583 86 75.379 86C75.6141 86 75.8535 85.9436 76.0754 85.8235C76.7865 85.4383 77.0508 84.5493 76.6656 83.8375L74.4841 79.812L77.0926 78.398C78.9739 77.3771 79.6761 75.0162 78.6568 73.1342ZM26.0371 77.2343L23.4279 75.8203C22.9659 75.5698 22.7938 74.9906 23.0442 74.5292L41.4961 40.4705C42.4598 41.3588 43.5824 42.0728 44.8215 42.5627L26.0371 77.2343ZM40.9505 32.5888C40.9505 28.2865 44.4509 24.7868 48.7532 24.7868C53.0555 24.7868 56.5551 28.2865 56.5551 32.5888C56.5551 33.7414 56.2974 34.8325 55.847 35.8182C55.8441 35.8219 55.8426 35.8263 55.8404 35.8307C54.6065 38.5175 51.897 40.3915 48.7525 40.3915C44.4509 40.3907 40.9505 36.891 40.9505 32.5888ZM75.6968 75.821L73.0883 77.2343L53.9738 41.9557C55.1499 41.2973 56.1927 40.4281 57.0436 39.3926L76.0805 74.5292C76.3317 74.9913 76.1589 75.5705 75.6968 75.821Z" fill="black"/>
</g>
<defs>
<filter id="filter0_d" x="16" y="14" width="67.1246" height="80" filterUnits="userSpaceOnUse" color-interpolation-filters="sRGB">
<feFlood flood-opacity="0" result="BackgroundImageFix"/>
<feColorMatrix in="SourceAlpha" type="matrix" values="0 0 0 0 0 0 0 0 0 0 0 0 0 0 0 0 0 0 127 0" result="hardAlpha"/>
<feOffset dy="4"/>
<feGaussianBlur stdDeviation="2"/>
<feComposite in2="hardAlpha" operator="out"/>
<feColorMatrix type="matrix" values="0 0 0 0 0 0 0 0 0 0 0 0 0 0 0 0 0 0 0.25 0"/>
<feBlend mode="normal" in2="BackgroundImageFix" result="effect1_dropShadow"/>
<feBlend mode="normal" in="SourceGraphic" in2="effect1_dropShadow" result="shape"/>
</filter>
</defs>
</svg>
