<svg xmlns="http://www.w3.org/2000/svg" xmlns:xlink="http://www.w3.org/1999/xlink" style="background: white; border-radius: 10px;" height="300px" width="300px" fill="#000000" version="1.1" x="0px" y="0px" viewBox="0 0 100 100" enable-background="new 0 0 100 100" xml:space="preserve">
   <path d="M89.73,81.592L62.567,31.456c0.624-1.627,0.981-3.386,0.981-5.231c0-7.4-5.52-13.521-12.654-14.501V2.841  c0-1.104-0.896-2-2-2s-2,0.896-2,2v8.882c-7.135,0.98-12.655,7.101-12.655,14.501c0,2.698,0.746,5.219,2.022,7.393L10.27,81.593  c-1.392,2.569-0.434,5.793,2.136,7.186l3.563,1.931l-2.978,5.497c-0.526,0.972-0.166,2.186,0.806,2.712  c0.303,0.164,0.629,0.241,0.951,0.241c0.71,0,1.398-0.379,1.76-1.047l3.931-7.255l0-0.001c0-0.001,0-0.001,0-0.001l27.112-50.044  c0.443,0.041,0.89,0.068,1.343,0.068c1.161,0,2.285-0.15,3.369-0.406l27.292,50.372c0.002,0.004,0.003,0.008,0.005,0.012  c0.002,0.003,0.004,0.005,0.006,0.007l3.927,7.249c0.362,0.668,1.05,1.047,1.761,1.047c0.321,0,0.648-0.077,0.951-0.241  c0.971-0.526,1.332-1.74,0.806-2.712l-2.979-5.497l3.562-1.931C90.163,87.386,91.122,84.162,89.73,81.592z M17.875,87.191  l-3.563-1.931c-0.631-0.342-0.866-1.133-0.524-1.763l25.197-46.509c1.316,1.213,2.849,2.188,4.541,2.857L17.875,87.191z   M38.24,26.225c0-5.875,4.78-10.654,10.655-10.654s10.654,4.779,10.654,10.654c0,1.574-0.352,3.064-0.967,4.41  c-0.004,0.005-0.006,0.011-0.009,0.017c-1.685,3.669-5.385,6.228-9.679,6.228C43.02,36.879,38.24,32.1,38.24,26.225z M85.688,85.261  l-3.562,1.93L56.024,39.016c1.606-0.899,3.03-2.086,4.192-3.5l25.996,47.981C86.555,84.128,86.319,84.919,85.688,85.261z"/>
</svg>