<svg xmlns="http://www.w3.org/2000/svg" xmlns:xlink="http://www.w3.org/1999/xlink" height="300px" width="300px" fill="#f1f1f1" version="1.0" x="0px" y="0px" viewBox="0 0 100 100" enable-background="new 0 0 100 100" xml:space="preserve"><path d="M5,78.2939911c0,4.4452438,3.6159563,8.0622177,8.061204,8.0622177s8.061204-3.6169739,8.061204-8.0622177v-2.8578033  h57.630188v2.8578033c0,4.4452438,3.6159515,8.0622177,8.061203,8.0622177c4.4452438,0,8.061203-3.6169739,8.061203-8.0622177  V21.7049923c0-4.4452477-3.6159592-8.061203-8.061203-8.061203h-5.4595032H18.5207081H13.061204  C8.6159563,13.6437893,5,17.2597446,5,21.7049923v55.2474976V78.2939911z M15.9190083,78.2939911  c0,1.5762634-1.2815409,2.8588181-2.8578043,2.8588181s-2.8578053-1.2825546-2.8578053-2.8588181  s1.2815409-2.8578033,2.8578053-2.8578033h2.8578043V78.2939911z M78.752594,70.2327881h-57.630188h-2.6016998H13.061204  c-1.0073967,0-1.9680443,0.1939163-2.8578053,0.5328522V21.7049923c0-1.5762634,1.2815409-2.8578033,2.8578053-2.8578033h5.4595041  h62.8335876h5.4595032c1.5762634,0,2.8578033,1.2815399,2.8578033,2.8578033v49.060585  c-0.8897629-0.3389359-1.8504105-0.5327911-2.8578033-0.5327911h-5.4595032H78.752594z M86.813797,81.1528091  c-1.5762634,0-2.8578033-1.2825546-2.8578033-2.8588181v-2.8578033h2.8578033c1.5762634,0,2.8578033,1.2815399,2.8578033,2.8578033  S88.3900604,81.1528091,86.813797,81.1528091z"/></svg>